<svg xmlns="http://www.w3.org/2000/svg" version="1.1" xmlns:xlink="http://www.w3.org/1999/xlink" xmlns:svgjs="http://svgjs.dev/svgjs" width="1500" height="170" viewBox="0 0 1500 170"><g transform="matrix(1,0,0,1,-0.9090909090909918,-0.5999864484821984)"><svg viewBox="0 0 396 45" data-background-color="#000000" preserveAspectRatio="xMidYMid meet" height="170" width="1500" xmlns="http://www.w3.org/2000/svg" xmlns:xlink="http://www.w3.org/1999/xlink"><g id="tight-bounds" transform="matrix(1,0,0,1,0.2400000000000091,0.1588199422452874)"><svg viewBox="0 0 395.52 44.68236011550945" height="44.68236011550945" width="395.52"><g><svg viewBox="0 0 461.17603767414727 52.0996" height="44.68236011550945" width="395.52"><g><svg viewBox="0 0 461.17603767414727 52.0996" height="52.0996" width="461.17603767414727"><g id="textblocktransform"><svg viewBox="0 0 461.17603767414727 52.0996" height="52.0996" width="461.17603767414727" id="textblock"><g><svg viewBox="0 0 461.17603767414727 52.0996" height="52.0996" width="461.17603767414727"><g><svg><g></g><g></g></svg></g><g><svg><g><svg></svg></g><g></g></svg></g><g id="text-0"><svg viewBox="0 0 461.17603767414727 52.0996" height="52.0996" width="461.17603767414727"><g transform="matrix(1,0,0,1,0,2.350983475995534)"><svg width="395.52" viewBox="1.25 -31.55 269.23 32.2" height="47.397633048008935" data-palette-color="#ffffff"><g class="wordmark-text-0" data-fill-palette-color="primary"><path d="M35.55-24.35L39.95-24.35 32.85-1.2Q32.7-0.65 32.25-0.33 31.8 0 31.2 0L31.2 0 27.35 0Q26.75 0 26.28-0.38 25.8-0.75 25.7-1.35L25.7-1.35 21.7-17.9Q21.5-18.85 21.33-19.8 21.15-20.75 20.9-21.75L20.9-21.75 20.3-21.75Q20.1-20.75 19.88-19.8 19.65-18.85 19.45-17.9L19.45-17.9 15.5-1.35Q15.35-0.75 14.9-0.38 14.45 0 13.8 0L13.8 0 10 0Q9.4 0 8.95-0.33 8.5-0.65 8.35-1.2L8.35-1.2 1.25-24.35 5.65-24.35 10.7-6.4Q10.95-5.5 11.15-4.58 11.35-3.65 11.5-2.75L11.5-2.75 12.15-2.75Q12.4-3.65 12.63-4.58 12.85-5.5 13.05-6.4L13.05-6.4 17.1-23Q17.2-23.6 17.63-23.98 18.05-24.35 18.7-24.35L18.7-24.35 22.55-24.35Q23.15-24.35 23.58-23.98 24-23.6 24.15-22.95L24.15-22.95 28.15-6.4Q28.35-5.5 28.58-4.6 28.8-3.7 29-2.75L29-2.75 29.65-2.75Q29.9-3.7 30.05-4.58 30.2-5.45 30.5-6.4L30.5-6.4 35.55-24.35ZM55.1-24.95L55.1-24.95Q60.6-24.95 63.07-22.95 65.55-20.95 65.55-17L65.55-17Q65.6-13.75 64.2-11.93 62.8-10.1 59.75-10.1L59.75-10.1 45.55-10.1 45.55-13.4 58.65-13.4Q60.3-13.4 60.8-14.53 61.3-15.65 61.3-17L61.3-17Q61.25-19.35 59.9-20.35 58.55-21.35 55.3-21.35L55.3-21.35Q52.65-21.35 51.12-20.58 49.6-19.8 48.97-17.88 48.35-15.95 48.35-12.5L48.35-12.5Q48.35-8.6 49.12-6.55 49.9-4.5 51.6-3.75 53.3-3 56.1-3L56.1-3Q58.05-3 60.37-3.18 62.7-3.35 64.55-3.6L64.55-3.6 65-0.75Q63.85-0.3 62.17 0 60.5 0.3 58.72 0.45 56.95 0.6 55.55 0.6L55.55 0.6Q51.35 0.6 48.8-0.68 46.25-1.95 45.07-4.78 43.9-7.6 43.9-12.25L43.9-12.25Q43.9-17.05 45.07-19.83 46.25-22.6 48.72-23.78 51.2-24.95 55.1-24.95ZM71.65-14.25L86.9-14.25 86.9-11 71.65-11 71.65-14.25ZM104.79-24.95L104.79-24.95Q105.89-24.95 107.24-24.85 108.59-24.75 110.02-24.5 111.44-24.25 112.64-23.8L112.64-23.8 112.09-21.05Q110.44-21.2 108.62-21.28 106.79-21.35 105.49-21.35L105.49-21.35Q102.59-21.35 100.89-20.55 99.19-19.75 98.44-17.75 97.69-15.75 97.69-12.2L97.69-12.2Q97.69-8.65 98.44-6.63 99.19-4.6 100.89-3.8 102.59-3 105.49-3L105.49-3Q106.24-3 107.44-3.05 108.64-3.1 110.02-3.2 111.39-3.3 112.64-3.5L112.64-3.5 113.09-0.65Q111.24 0 109.07 0.3 106.89 0.6 104.74 0.6L104.74 0.6Q100.54 0.6 97.99-0.65 95.44-1.9 94.32-4.7 93.19-7.5 93.19-12.2L93.19-12.2Q93.19-16.9 94.34-19.7 95.49-22.5 98.04-23.73 100.59-24.95 104.79-24.95ZM129.14-24.95L129.14-24.95Q133.34-24.95 135.87-23.7 138.39-22.45 139.49-19.63 140.59-16.8 140.59-12.15L140.59-12.15Q140.59-7.5 139.49-4.67 138.39-1.85 135.87-0.6 133.34 0.65 129.14 0.65L129.14 0.65Q124.99 0.65 122.47-0.6 119.94-1.85 118.82-4.67 117.69-7.5 117.69-12.15L117.69-12.15Q117.69-16.8 118.82-19.63 119.94-22.45 122.47-23.7 124.99-24.95 129.14-24.95ZM129.14-21.35L129.14-21.35Q126.49-21.35 124.97-20.53 123.44-19.7 122.79-17.7 122.14-15.7 122.14-12.15L122.14-12.15Q122.14-8.6 122.79-6.6 123.44-4.6 124.97-3.78 126.49-2.95 129.14-2.95L129.14-2.95Q131.79-2.95 133.34-3.78 134.89-4.6 135.54-6.6 136.19-8.6 136.19-12.15L136.19-12.15Q136.19-15.7 135.54-17.7 134.89-19.7 133.34-20.53 131.79-21.35 129.14-21.35ZM162.04-24.95L162.04-24.95Q168.64-24.95 168.64-18.25L168.64-18.25 168.64 0 164.39 0 164.39-17.05Q164.39-19.5 163.59-20.43 162.79-21.35 160.89-21.35L160.89-21.35Q158.64-21.35 156.39-20.25 154.14-19.15 151.04-17.25L151.04-17.25 150.84-20.3Q153.69-22.5 156.49-23.73 159.29-24.95 162.04-24.95ZM147.24-24.35L150.84-24.35 151.19-19.7 151.49-18.95 151.49 0 147.24 0 147.24-24.35ZM191.09-24.95L191.09-24.95Q197.69-24.95 197.69-18.25L197.69-18.25 197.69 0 193.44 0 193.44-17.05Q193.44-19.5 192.64-20.43 191.84-21.35 189.94-21.35L189.94-21.35Q187.69-21.35 185.44-20.25 183.19-19.15 180.09-17.25L180.09-17.25 179.89-20.3Q182.74-22.5 185.54-23.73 188.34-24.95 191.09-24.95ZM176.29-24.35L179.89-24.35 180.24-19.7 180.54-18.95 180.54 0 176.29 0 176.29-24.35ZM215.33-24.95L215.33-24.95Q220.83-24.95 223.31-22.95 225.78-20.95 225.78-17L225.78-17Q225.83-13.75 224.43-11.93 223.03-10.1 219.98-10.1L219.98-10.1 205.78-10.1 205.78-13.4 218.88-13.4Q220.53-13.4 221.03-14.53 221.53-15.65 221.53-17L221.53-17Q221.48-19.35 220.13-20.35 218.78-21.35 215.53-21.35L215.53-21.35Q212.88-21.35 211.36-20.58 209.83-19.8 209.21-17.88 208.58-15.95 208.58-12.5L208.58-12.5Q208.58-8.6 209.36-6.55 210.13-4.5 211.83-3.75 213.53-3 216.33-3L216.33-3Q218.28-3 220.61-3.18 222.93-3.35 224.78-3.6L224.78-3.6 225.23-0.75Q224.08-0.3 222.41 0 220.73 0.3 218.96 0.45 217.18 0.6 215.78 0.6L215.78 0.6Q211.58 0.6 209.03-0.68 206.48-1.95 205.31-4.78 204.13-7.6 204.13-12.25L204.13-12.25Q204.13-17.05 205.31-19.83 206.48-22.6 208.96-23.78 211.43-24.95 215.33-24.95ZM242.58-24.95L242.58-24.95Q243.68-24.95 245.03-24.85 246.38-24.75 247.81-24.5 249.23-24.25 250.43-23.8L250.43-23.8 249.88-21.05Q248.23-21.2 246.41-21.28 244.58-21.35 243.28-21.35L243.28-21.35Q240.38-21.35 238.68-20.55 236.98-19.75 236.23-17.75 235.48-15.75 235.48-12.2L235.48-12.2Q235.48-8.65 236.23-6.63 236.98-4.6 238.68-3.8 240.38-3 243.28-3L243.28-3Q244.03-3 245.23-3.05 246.43-3.1 247.81-3.2 249.18-3.3 250.43-3.5L250.43-3.5 250.88-0.65Q249.03 0 246.86 0.3 244.68 0.6 242.53 0.6L242.53 0.6Q238.33 0.6 235.78-0.65 233.23-1.9 232.11-4.7 230.98-7.5 230.98-12.2L230.98-12.2Q230.98-16.9 232.13-19.7 233.28-22.5 235.83-23.73 238.38-24.95 242.58-24.95ZM258.48-31.55L262.73-31.55 262.73-6.7Q262.73-4.95 263.48-4.2 264.23-3.45 266.03-3.45L266.03-3.45 269.73-3.45 270.23-0.2Q269.43 0 268.38 0.15 267.33 0.3 266.33 0.38 265.33 0.45 264.73 0.45L264.73 0.45Q261.68 0.45 260.08-1.25 258.48-2.95 258.48-6.15L258.48-6.15 258.48-31.55ZM258.88-24.35L270.48-24.35 270.48-21 254.08-21 254.08-24.1 258.88-24.35Z" fill="#ffffff" data-fill-palette-color="primary"></path></g></svg></g><g><svg xmlns="http://www.w3.org/2000/svg" xmlns:xlink="http://www.w3.org/1999/xlink" version="1.1" x="407.8204" y="0" viewBox="11.017823632605118 11.459999999999999 37.963698158539415 37.07000000000001" style="enable-background:new 0 0 60 60;" xml:space="preserve" height="52.0996" width="53.35563767414728" class="icon-cg-0" data-fill-palette-color="accent" id="cg-0"><path d="M48.85 34.1L35.82 11.92c-0.17-0.29-0.47-0.46-0.81-0.46s-0.64 0.18-0.81 0.46L30 19.08l-4.21-7.15c-0.17-0.29-0.47-0.46-0.81-0.46s-0.64 0.18-0.81 0.46L11.15 34.1c-0.22 0.37-0.16 0.83 0.14 1.13l13.03 13.03c0.18 0.18 0.42 0.27 0.66 0.27s0.48-0.09 0.66-0.27L30 43.91l4.35 4.35c0.18 0.18 0.42 0.27 0.66 0.27s0.48-0.09 0.66-0.27l13.03-13.03C49.01 34.93 49.07 34.46 48.85 34.1zM24.99 46.28L13.13 34.42l11.86-20.18 3.93 6.68L21.17 34.1c-0.22 0.37-0.16 0.83 0.14 1.13l7.36 7.36L24.99 46.28zM30 22.77l6.85 11.65L30 41.27l-6.85-6.85L30 22.77zM35.01 46.28l-3.69-3.69 7.36-7.36c0.3-0.3 0.36-0.77 0.14-1.13l-7.74-13.17 3.93-6.68 11.86 20.18L35.01 46.28z" fill="#2927cd" data-fill-palette-color="accent"></path></svg></g></svg></g></svg></g></svg></g></svg></g><g></g></svg></g><defs></defs></svg><rect width="395.52" height="44.68236011550945" fill="none" stroke="none" visibility="hidden"></rect></g></svg></g></svg>